<mxfile host="app.diagrams.net" modified="2023-05-21T15:24:07.852Z" agent="Mozilla/5.0 (Windows NT 10.0; Win64; x64) AppleWebKit/537.36 (KHTML, like Gecko) Chrome/113.0.0.0 Safari/537.36" etag="82f3GQF54AXf-G5AfMuP" version="21.3.2" type="device">
  <diagram name="Página-1" id="7WiEaqqgsxEvsUy3xASZ">
    <mxGraphModel dx="1050" dy="549" grid="1" gridSize="10" guides="1" tooltips="1" connect="1" arrows="1" fold="1" page="1" pageScale="1" pageWidth="827" pageHeight="1169" math="0" shadow="0">
      <root>
        <mxCell id="0" />
        <mxCell id="1" parent="0" />
        <mxCell id="1OvbucusAU_AAqIyTiCt-16" value="" style="group" vertex="1" connectable="0" parent="1">
          <mxGeometry x="130" y="130" width="120" height="110" as="geometry" />
        </mxCell>
        <mxCell id="1OvbucusAU_AAqIyTiCt-8" value="Subsistema_7&lt;br&gt;Logs" style="rounded=0;whiteSpace=wrap;html=1;" vertex="1" parent="1OvbucusAU_AAqIyTiCt-16">
          <mxGeometry y="50" width="120" height="60" as="geometry" />
        </mxCell>
        <mxCell id="1OvbucusAU_AAqIyTiCt-9" value="" style="shape=image;html=1;verticalAlign=top;verticalLabelPosition=bottom;labelBackgroundColor=#ffffff;imageAspect=0;aspect=fixed;image=https://cdn1.iconfinder.com/data/icons/unicons-line-vol-3/24/docker-128.png" vertex="1" parent="1OvbucusAU_AAqIyTiCt-16">
          <mxGeometry width="50" height="50" as="geometry" />
        </mxCell>
        <mxCell id="1OvbucusAU_AAqIyTiCt-33" value="" style="image;aspect=fixed;perimeter=ellipsePerimeter;html=1;align=center;shadow=0;dashed=0;spacingTop=3;image=img/lib/active_directory/database.svg;" vertex="1" parent="1OvbucusAU_AAqIyTiCt-16">
          <mxGeometry x="70" y="6.5" width="50" height="37" as="geometry" />
        </mxCell>
        <mxCell id="1OvbucusAU_AAqIyTiCt-17" value="" style="group" vertex="1" connectable="0" parent="1">
          <mxGeometry x="90" y="270" width="120" height="110" as="geometry" />
        </mxCell>
        <mxCell id="1OvbucusAU_AAqIyTiCt-7" value="Subsistema_6&lt;br&gt;Recambios" style="rounded=0;whiteSpace=wrap;html=1;" vertex="1" parent="1OvbucusAU_AAqIyTiCt-17">
          <mxGeometry y="50" width="120" height="60" as="geometry" />
        </mxCell>
        <mxCell id="1OvbucusAU_AAqIyTiCt-10" value="" style="shape=image;html=1;verticalAlign=top;verticalLabelPosition=bottom;labelBackgroundColor=#ffffff;imageAspect=0;aspect=fixed;image=https://cdn1.iconfinder.com/data/icons/unicons-line-vol-3/24/docker-128.png" vertex="1" parent="1OvbucusAU_AAqIyTiCt-17">
          <mxGeometry width="50" height="50" as="geometry" />
        </mxCell>
        <mxCell id="1OvbucusAU_AAqIyTiCt-32" value="" style="image;aspect=fixed;perimeter=ellipsePerimeter;html=1;align=center;shadow=0;dashed=0;spacingTop=3;image=img/lib/active_directory/database.svg;" vertex="1" parent="1OvbucusAU_AAqIyTiCt-17">
          <mxGeometry x="70" y="6.5" width="50" height="37" as="geometry" />
        </mxCell>
        <mxCell id="1OvbucusAU_AAqIyTiCt-18" value="" style="group" vertex="1" connectable="0" parent="1">
          <mxGeometry x="220" y="370" width="120" height="110" as="geometry" />
        </mxCell>
        <mxCell id="1OvbucusAU_AAqIyTiCt-4" value="Subsistema_3&lt;br&gt;Trabajos" style="rounded=0;whiteSpace=wrap;html=1;" vertex="1" parent="1OvbucusAU_AAqIyTiCt-18">
          <mxGeometry y="50" width="120" height="60" as="geometry" />
        </mxCell>
        <mxCell id="1OvbucusAU_AAqIyTiCt-12" value="" style="shape=image;html=1;verticalAlign=top;verticalLabelPosition=bottom;labelBackgroundColor=#ffffff;imageAspect=0;aspect=fixed;image=https://cdn1.iconfinder.com/data/icons/unicons-line-vol-3/24/docker-128.png" vertex="1" parent="1OvbucusAU_AAqIyTiCt-18">
          <mxGeometry width="50" height="50" as="geometry" />
        </mxCell>
        <mxCell id="1OvbucusAU_AAqIyTiCt-30" value="" style="image;aspect=fixed;perimeter=ellipsePerimeter;html=1;align=center;shadow=0;dashed=0;spacingTop=3;image=img/lib/active_directory/database.svg;" vertex="1" parent="1OvbucusAU_AAqIyTiCt-18">
          <mxGeometry x="60" y="6.5" width="50" height="37" as="geometry" />
        </mxCell>
        <mxCell id="1OvbucusAU_AAqIyTiCt-19" value="" style="group" vertex="1" connectable="0" parent="1">
          <mxGeometry x="440" y="360" width="120" height="110" as="geometry" />
        </mxCell>
        <mxCell id="1OvbucusAU_AAqIyTiCt-5" value="Subsistema_4&lt;br&gt;Notificaciones" style="rounded=0;whiteSpace=wrap;html=1;" vertex="1" parent="1OvbucusAU_AAqIyTiCt-19">
          <mxGeometry y="50" width="120" height="60" as="geometry" />
        </mxCell>
        <mxCell id="1OvbucusAU_AAqIyTiCt-11" value="" style="shape=image;html=1;verticalAlign=top;verticalLabelPosition=bottom;labelBackgroundColor=#ffffff;imageAspect=0;aspect=fixed;image=https://cdn1.iconfinder.com/data/icons/unicons-line-vol-3/24/docker-128.png" vertex="1" parent="1OvbucusAU_AAqIyTiCt-19">
          <mxGeometry width="50" height="50" as="geometry" />
        </mxCell>
        <mxCell id="1OvbucusAU_AAqIyTiCt-31" value="" style="image;aspect=fixed;perimeter=ellipsePerimeter;html=1;align=center;shadow=0;dashed=0;spacingTop=3;image=img/lib/active_directory/database.svg;" vertex="1" parent="1OvbucusAU_AAqIyTiCt-19">
          <mxGeometry x="70" y="6.5" width="50" height="37" as="geometry" />
        </mxCell>
        <mxCell id="1OvbucusAU_AAqIyTiCt-20" value="" style="group" vertex="1" connectable="0" parent="1">
          <mxGeometry x="570" y="230" width="120" height="110" as="geometry" />
        </mxCell>
        <mxCell id="1OvbucusAU_AAqIyTiCt-6" value="Subsistema_5&lt;br&gt;Facturas" style="rounded=0;whiteSpace=wrap;html=1;" vertex="1" parent="1OvbucusAU_AAqIyTiCt-20">
          <mxGeometry y="50" width="120" height="60" as="geometry" />
        </mxCell>
        <mxCell id="1OvbucusAU_AAqIyTiCt-13" value="" style="shape=image;html=1;verticalAlign=top;verticalLabelPosition=bottom;labelBackgroundColor=#ffffff;imageAspect=0;aspect=fixed;image=https://cdn1.iconfinder.com/data/icons/unicons-line-vol-3/24/docker-128.png" vertex="1" parent="1OvbucusAU_AAqIyTiCt-20">
          <mxGeometry width="50" height="50" as="geometry" />
        </mxCell>
        <mxCell id="1OvbucusAU_AAqIyTiCt-28" value="" style="image;aspect=fixed;perimeter=ellipsePerimeter;html=1;align=center;shadow=0;dashed=0;spacingTop=3;image=img/lib/active_directory/database.svg;" vertex="1" parent="1OvbucusAU_AAqIyTiCt-20">
          <mxGeometry x="70" y="6.5" width="50" height="37" as="geometry" />
        </mxCell>
        <mxCell id="1OvbucusAU_AAqIyTiCt-21" value="" style="group" vertex="1" connectable="0" parent="1">
          <mxGeometry x="480" y="90" width="120" height="110" as="geometry" />
        </mxCell>
        <mxCell id="1OvbucusAU_AAqIyTiCt-3" value="Subsistema_1&lt;br&gt;Clientes" style="rounded=0;whiteSpace=wrap;html=1;" vertex="1" parent="1OvbucusAU_AAqIyTiCt-21">
          <mxGeometry y="50" width="120" height="60" as="geometry" />
        </mxCell>
        <mxCell id="1OvbucusAU_AAqIyTiCt-15" value="" style="shape=image;html=1;verticalAlign=top;verticalLabelPosition=bottom;labelBackgroundColor=#ffffff;imageAspect=0;aspect=fixed;image=https://cdn1.iconfinder.com/data/icons/unicons-line-vol-3/24/docker-128.png" vertex="1" parent="1OvbucusAU_AAqIyTiCt-21">
          <mxGeometry width="50" height="50" as="geometry" />
        </mxCell>
        <mxCell id="1OvbucusAU_AAqIyTiCt-29" value="" style="image;aspect=fixed;perimeter=ellipsePerimeter;html=1;align=center;shadow=0;dashed=0;spacingTop=3;image=img/lib/active_directory/database.svg;" vertex="1" parent="1OvbucusAU_AAqIyTiCt-21">
          <mxGeometry x="70" y="6.5" width="50" height="37" as="geometry" />
        </mxCell>
        <mxCell id="1OvbucusAU_AAqIyTiCt-22" value="" style="group" vertex="1" connectable="0" parent="1">
          <mxGeometry x="280" y="40" width="120" height="110" as="geometry" />
        </mxCell>
        <mxCell id="1OvbucusAU_AAqIyTiCt-1" value="Subsistema_2&lt;br&gt;Vehículos" style="rounded=0;whiteSpace=wrap;html=1;" vertex="1" parent="1OvbucusAU_AAqIyTiCt-22">
          <mxGeometry y="50" width="120" height="60" as="geometry" />
        </mxCell>
        <mxCell id="1OvbucusAU_AAqIyTiCt-14" value="" style="shape=image;html=1;verticalAlign=top;verticalLabelPosition=bottom;labelBackgroundColor=#ffffff;imageAspect=0;aspect=fixed;image=https://cdn1.iconfinder.com/data/icons/unicons-line-vol-3/24/docker-128.png" vertex="1" parent="1OvbucusAU_AAqIyTiCt-22">
          <mxGeometry width="50" height="50" as="geometry" />
        </mxCell>
        <mxCell id="1OvbucusAU_AAqIyTiCt-34" value="" style="image;aspect=fixed;perimeter=ellipsePerimeter;html=1;align=center;shadow=0;dashed=0;spacingTop=3;image=img/lib/active_directory/database.svg;" vertex="1" parent="1OvbucusAU_AAqIyTiCt-22">
          <mxGeometry x="70" y="6.5" width="50" height="37" as="geometry" />
        </mxCell>
        <mxCell id="1OvbucusAU_AAqIyTiCt-23" value="" style="image;aspect=fixed;perimeter=ellipsePerimeter;html=1;align=center;shadow=0;dashed=0;spacingTop=3;image=img/lib/active_directory/laptop_client.svg;" vertex="1" parent="1">
          <mxGeometry x="342" y="240" width="72" height="80" as="geometry" />
        </mxCell>
        <mxCell id="1OvbucusAU_AAqIyTiCt-35" style="rounded=0;orthogonalLoop=1;jettySize=auto;html=1;entryX=0.5;entryY=0;entryDx=0;entryDy=0;endArrow=none;endFill=0;" edge="1" parent="1" source="1OvbucusAU_AAqIyTiCt-1" target="1OvbucusAU_AAqIyTiCt-23">
          <mxGeometry relative="1" as="geometry" />
        </mxCell>
        <mxCell id="1OvbucusAU_AAqIyTiCt-57" value=":8002" style="edgeLabel;html=1;align=center;verticalAlign=middle;resizable=0;points=[];" vertex="1" connectable="0" parent="1OvbucusAU_AAqIyTiCt-35">
          <mxGeometry x="0.2555" y="-2" relative="1" as="geometry">
            <mxPoint x="10" y="13" as="offset" />
          </mxGeometry>
        </mxCell>
        <mxCell id="1OvbucusAU_AAqIyTiCt-36" style="rounded=0;orthogonalLoop=1;jettySize=auto;html=1;exitX=0.5;exitY=1;exitDx=0;exitDy=0;entryX=1;entryY=0.25;entryDx=0;entryDy=0;endArrow=none;endFill=0;" edge="1" parent="1" source="1OvbucusAU_AAqIyTiCt-3" target="1OvbucusAU_AAqIyTiCt-23">
          <mxGeometry relative="1" as="geometry" />
        </mxCell>
        <mxCell id="1OvbucusAU_AAqIyTiCt-50" value=":8001" style="edgeLabel;html=1;align=center;verticalAlign=middle;resizable=0;points=[];" vertex="1" connectable="0" parent="1OvbucusAU_AAqIyTiCt-36">
          <mxGeometry x="0.3099" y="-1" relative="1" as="geometry">
            <mxPoint x="-25" y="8" as="offset" />
          </mxGeometry>
        </mxCell>
        <mxCell id="1OvbucusAU_AAqIyTiCt-37" style="rounded=0;orthogonalLoop=1;jettySize=auto;html=1;exitX=0;exitY=0.5;exitDx=0;exitDy=0;entryX=1;entryY=0.75;entryDx=0;entryDy=0;endArrow=none;endFill=0;" edge="1" parent="1" source="1OvbucusAU_AAqIyTiCt-6" target="1OvbucusAU_AAqIyTiCt-23">
          <mxGeometry relative="1" as="geometry" />
        </mxCell>
        <mxCell id="1OvbucusAU_AAqIyTiCt-51" value=":8005" style="edgeLabel;html=1;align=center;verticalAlign=middle;resizable=0;points=[];" vertex="1" connectable="0" parent="1OvbucusAU_AAqIyTiCt-37">
          <mxGeometry x="0.1549" y="-1" relative="1" as="geometry">
            <mxPoint x="-37" as="offset" />
          </mxGeometry>
        </mxCell>
        <mxCell id="1OvbucusAU_AAqIyTiCt-38" style="rounded=0;orthogonalLoop=1;jettySize=auto;html=1;exitX=0;exitY=0;exitDx=0;exitDy=0;entryX=0.75;entryY=1;entryDx=0;entryDy=0;endArrow=none;endFill=0;" edge="1" parent="1" source="1OvbucusAU_AAqIyTiCt-5" target="1OvbucusAU_AAqIyTiCt-23">
          <mxGeometry relative="1" as="geometry">
            <Array as="points">
              <mxPoint x="430" y="390" />
            </Array>
          </mxGeometry>
        </mxCell>
        <mxCell id="1OvbucusAU_AAqIyTiCt-52" value=":8004" style="edgeLabel;html=1;align=center;verticalAlign=middle;resizable=0;points=[];" vertex="1" connectable="0" parent="1OvbucusAU_AAqIyTiCt-38">
          <mxGeometry x="0.0002" relative="1" as="geometry">
            <mxPoint x="-17" y="-33" as="offset" />
          </mxGeometry>
        </mxCell>
        <mxCell id="1OvbucusAU_AAqIyTiCt-39" style="rounded=0;orthogonalLoop=1;jettySize=auto;html=1;exitX=1;exitY=0;exitDx=0;exitDy=0;entryX=0.25;entryY=1;entryDx=0;entryDy=0;endArrow=none;endFill=0;" edge="1" parent="1" source="1OvbucusAU_AAqIyTiCt-4" target="1OvbucusAU_AAqIyTiCt-23">
          <mxGeometry relative="1" as="geometry">
            <Array as="points">
              <mxPoint x="350" y="370" />
            </Array>
          </mxGeometry>
        </mxCell>
        <mxCell id="1OvbucusAU_AAqIyTiCt-54" value=":8003" style="edgeLabel;html=1;align=center;verticalAlign=middle;resizable=0;points=[];" vertex="1" connectable="0" parent="1OvbucusAU_AAqIyTiCt-39">
          <mxGeometry x="-0.3268" y="-1" relative="1" as="geometry">
            <mxPoint x="2" y="-55" as="offset" />
          </mxGeometry>
        </mxCell>
        <mxCell id="1OvbucusAU_AAqIyTiCt-40" style="rounded=0;orthogonalLoop=1;jettySize=auto;html=1;exitX=1;exitY=0;exitDx=0;exitDy=0;entryX=0;entryY=0.75;entryDx=0;entryDy=0;endArrow=none;endFill=0;" edge="1" parent="1" source="1OvbucusAU_AAqIyTiCt-7" target="1OvbucusAU_AAqIyTiCt-23">
          <mxGeometry relative="1" as="geometry" />
        </mxCell>
        <mxCell id="1OvbucusAU_AAqIyTiCt-55" value=":8006" style="edgeLabel;html=1;align=center;verticalAlign=middle;resizable=0;points=[];" vertex="1" connectable="0" parent="1OvbucusAU_AAqIyTiCt-40">
          <mxGeometry x="-0.1881" y="2" relative="1" as="geometry">
            <mxPoint x="45" y="-9" as="offset" />
          </mxGeometry>
        </mxCell>
        <mxCell id="1OvbucusAU_AAqIyTiCt-41" style="rounded=0;orthogonalLoop=1;jettySize=auto;html=1;exitX=1;exitY=0.5;exitDx=0;exitDy=0;entryX=-0.011;entryY=0.383;entryDx=0;entryDy=0;entryPerimeter=0;endArrow=none;endFill=0;" edge="1" parent="1" source="1OvbucusAU_AAqIyTiCt-8" target="1OvbucusAU_AAqIyTiCt-23">
          <mxGeometry relative="1" as="geometry" />
        </mxCell>
        <mxCell id="1OvbucusAU_AAqIyTiCt-56" value=":8007" style="edgeLabel;html=1;align=center;verticalAlign=middle;resizable=0;points=[];" vertex="1" connectable="0" parent="1OvbucusAU_AAqIyTiCt-41">
          <mxGeometry x="-0.2687" y="-1" relative="1" as="geometry">
            <mxPoint x="47" y="27" as="offset" />
          </mxGeometry>
        </mxCell>
        <mxCell id="1OvbucusAU_AAqIyTiCt-59" value=":8000" style="text;html=1;align=center;verticalAlign=middle;resizable=0;points=[];autosize=1;strokeColor=none;fillColor=none;" vertex="1" parent="1">
          <mxGeometry x="345" y="148" width="50" height="30" as="geometry" />
        </mxCell>
      </root>
    </mxGraphModel>
  </diagram>
</mxfile>
